<svg width="14" height="18" viewBox="0 0 14 18" fill="none" xmlns="http://www.w3.org/2000/svg">
<path d="M11 14.0095V7.99953C11 7.44953 10.55 6.99953 10 6.99953C9.45003 6.99953 9.00003 7.44953 9.00003 7.99953V14.0095H7.21003C6.76003 14.0095 6.54003 14.5495 6.86003 14.8595L9.65003 17.6395C9.85003 17.8295 10.16 17.8295 10.36 17.6395L13.15 14.8595C13.47 14.5495 13.24 14.0095 12.8 14.0095H11ZM3.65003 0.349531L0.860031 3.13953C0.540031 3.44953 0.76003 3.98953 1.21003 3.98953H3.00003V9.99953C3.00003 10.5495 3.45003 10.9995 4.00003 10.9995C4.55003 10.9995 5.00003 10.5495 5.00003 9.99953V3.98953H6.79003C7.24003 3.98953 7.46003 3.44953 7.14003 3.13953L4.35003 0.349531C4.16003 0.159531 3.84003 0.159531 3.65003 0.349531Z" fill="#2C6EFE"/>
</svg>
